<mxfile host="65bd71144e">
    <diagram id="3KNrLy48KbOVW-E9r99I" name="Page-1">
        <mxGraphModel dx="1206" dy="2297" grid="1" gridSize="10" guides="1" tooltips="1" connect="1" arrows="1" fold="1" page="1" pageScale="1" pageWidth="827" pageHeight="1169" math="0" shadow="0">
            <root>
                <mxCell id="0"/>
                <mxCell id="1" parent="0"/>
                <mxCell id="118" value="deployment Umweltbelastung System" style="shape=umlFrame;whiteSpace=wrap;html=1;width=220;height=30;boundedLbl=1;verticalAlign=middle;align=left;spacingLeft=5;" parent="1" vertex="1">
                    <mxGeometry x="170" y="-160" width="950" height="1430" as="geometry"/>
                </mxCell>
                <mxCell id="48" style="edgeStyle=none;html=1;dashed=1;endArrow=open;endFill=0;" parent="1" edge="1">
                    <mxGeometry relative="1" as="geometry">
                        <mxPoint x="877.1466666666665" y="779.9985714285713" as="sourcePoint"/>
                    </mxGeometry>
                </mxCell>
                <mxCell id="74" value="" style="group" parent="1" vertex="1" connectable="0">
                    <mxGeometry x="940" y="1150" width="144" height="70" as="geometry"/>
                </mxCell>
                <mxCell id="75" value="&amp;lt;&amp;lt;device&amp;gt;&amp;gt;&lt;br&gt;RFID Figuren" style="verticalAlign=top;align=center;spacingTop=8;spacingLeft=2;spacingRight=12;shape=cube;size=10;direction=south;fontStyle=0;html=1;" parent="74" vertex="1">
                    <mxGeometry width="144" height="70" as="geometry"/>
                </mxCell>
                <mxCell id="62" value="&amp;lt;&amp;lt;device&amp;gt;&amp;gt;&lt;br&gt;Spielkasten" style="verticalAlign=top;align=center;spacingTop=8;spacingLeft=2;spacingRight=12;shape=cube;size=10;direction=south;fontStyle=0;html=1;" parent="1" vertex="1">
                    <mxGeometry x="207.5" y="-90" width="615" height="1330" as="geometry"/>
                </mxCell>
                <mxCell id="18" value="" style="group" parent="1" vertex="1" connectable="0">
                    <mxGeometry x="609.0799999999999" y="1151" width="144" height="70" as="geometry"/>
                </mxCell>
                <mxCell id="19" value="&amp;lt;&amp;lt;device&amp;gt;&amp;gt;&lt;br&gt;RFID Scanner RC522" style="verticalAlign=top;align=center;spacingTop=8;spacingLeft=2;spacingRight=12;shape=cube;size=10;direction=south;fontStyle=0;html=1;" parent="18" vertex="1">
                    <mxGeometry width="144" height="70" as="geometry"/>
                </mxCell>
                <mxCell id="21" style="edgeStyle=orthogonalEdgeStyle;html=1;endArrow=none;endFill=0;" parent="1" source="37" target="19" edge="1">
                    <mxGeometry relative="1" as="geometry">
                        <mxPoint x="1550" y="445" as="sourcePoint"/>
                        <Array as="points">
                            <mxPoint x="680" y="1010"/>
                            <mxPoint x="680" y="1010"/>
                        </Array>
                    </mxGeometry>
                </mxCell>
                <mxCell id="22" value="&amp;lt;&amp;lt;protocol&amp;gt;&amp;gt;&lt;br&gt;SPI" style="edgeLabel;html=1;align=center;verticalAlign=middle;resizable=0;points=[];" parent="21" vertex="1" connectable="0">
                    <mxGeometry x="-0.0919" y="-3" relative="1" as="geometry">
                        <mxPoint x="3" y="8" as="offset"/>
                    </mxGeometry>
                </mxCell>
                <mxCell id="23" style="edgeStyle=none;html=1;endArrow=none;endFill=0;" parent="1" source="2" target="37" edge="1">
                    <mxGeometry relative="1" as="geometry">
                        <mxPoint x="1290" y="445" as="targetPoint"/>
                    </mxGeometry>
                </mxCell>
                <mxCell id="24" value="&amp;lt;&amp;lt;protocol&amp;gt;&amp;gt;&lt;br&gt;Serial USB" style="edgeLabel;html=1;align=center;verticalAlign=middle;resizable=0;points=[];" parent="23" vertex="1" connectable="0">
                    <mxGeometry x="0.2016" relative="1" as="geometry">
                        <mxPoint y="-12" as="offset"/>
                    </mxGeometry>
                </mxCell>
                <mxCell id="94" value="" style="group" parent="1" vertex="1" connectable="0">
                    <mxGeometry x="235" y="130" width="560" height="350" as="geometry"/>
                </mxCell>
                <mxCell id="2" value="&amp;lt;&amp;lt;device&amp;gt;&amp;gt;&lt;br&gt;RaspberryPi" style="verticalAlign=top;align=center;spacingTop=8;spacingLeft=2;spacingRight=12;shape=cube;size=10;direction=south;fontStyle=0;html=1;container=0;" parent="94" vertex="1">
                    <mxGeometry width="560" height="330" as="geometry"/>
                </mxCell>
                <mxCell id="45" value="&lt;div style=&quot;&quot;&gt;&lt;span style=&quot;background-color: initial;&quot;&gt;&amp;lt;&amp;lt;deployment spec&amp;gt;&amp;gt;&lt;/span&gt;&lt;/div&gt;&lt;div style=&quot;&quot;&gt;deployUmweltbelastung&lt;/div&gt;" style="html=1;align=center;verticalAlign=middle;dashed=0;" parent="94" vertex="1">
                    <mxGeometry x="34.579999999999984" y="250" width="162.15" height="70" as="geometry"/>
                </mxCell>
                <mxCell id="93" value="" style="group" parent="94" vertex="1" connectable="0">
                    <mxGeometry x="15" y="60" width="525" height="150" as="geometry"/>
                </mxCell>
                <mxCell id="26" value="&amp;lt;&amp;lt;executionEnviroment&amp;gt;&amp;gt;&lt;br&gt;RaspberryPiEnviroment" style="verticalAlign=top;align=center;spacingTop=8;spacingLeft=2;spacingRight=12;shape=cube;size=10;direction=south;fontStyle=0;html=1;" parent="93" vertex="1">
                    <mxGeometry width="525" height="150" as="geometry"/>
                </mxCell>
                <mxCell id="11" value="&lt;div style=&quot;&quot;&gt;&lt;span style=&quot;background-color: initial;&quot;&gt;&amp;lt;&amp;lt;artifact&amp;gt;&amp;gt;&lt;/span&gt;&lt;/div&gt;&lt;div style=&quot;&quot;&gt;&lt;span style=&quot;background-color: initial;&quot;&gt;Umweltbelastung.jar&lt;/span&gt;&lt;/div&gt;" style="html=1;align=center;verticalAlign=middle;dashed=0;" parent="93" vertex="1">
                    <mxGeometry x="14.999787234042557" y="62" width="171.31404255319146" height="63.5" as="geometry"/>
                </mxCell>
                <mxCell id="6" value="&lt;p style=&quot;margin: 6px 0px 0px;&quot;&gt;&amp;lt;&amp;lt;component&amp;gt;&amp;gt;&lt;/p&gt;&lt;p style=&quot;margin: 6px 0px 0px;&quot;&gt;&lt;span style=&quot;background-color: initial;&quot;&gt;&lt;br&gt;EnergieFormel&lt;/span&gt;&lt;br&gt;&lt;/p&gt;" style="align=center;overflow=fill;html=1;dropTarget=0;verticalAlign=middle;" parent="93" vertex="1">
                    <mxGeometry x="315" y="51.56" width="188.63" height="84.38" as="geometry"/>
                </mxCell>
                <mxCell id="7" value="" style="shape=component;jettyWidth=8;jettyHeight=4;" parent="6" vertex="1">
                    <mxGeometry x="1" width="20" height="20" relative="1" as="geometry">
                        <mxPoint x="-24" y="4" as="offset"/>
                    </mxGeometry>
                </mxCell>
                <mxCell id="28" style="edgeStyle=none;html=1;endArrow=open;endFill=0;dashed=1;" parent="93" source="11" target="6" edge="1">
                    <mxGeometry relative="1" as="geometry"/>
                </mxCell>
                <mxCell id="29" value="&amp;lt;&amp;lt;manifest&amp;gt;&amp;gt;" style="edgeLabel;html=1;align=center;verticalAlign=middle;resizable=0;points=[];" parent="28" vertex="1" connectable="0">
                    <mxGeometry x="0.0295" y="1" relative="1" as="geometry">
                        <mxPoint as="offset"/>
                    </mxGeometry>
                </mxCell>
                <mxCell id="46" style="edgeStyle=none;html=1;dashed=1;endArrow=open;endFill=0;" parent="94" source="45" target="11" edge="1">
                    <mxGeometry relative="1" as="geometry"/>
                </mxCell>
                <mxCell id="79" value="&amp;lt;&amp;lt;deploy&amp;gt;&amp;gt;" style="edgeLabel;html=1;align=center;verticalAlign=middle;resizable=0;points=[];" parent="46" vertex="1" connectable="0">
                    <mxGeometry x="-0.0122" y="-4" relative="1" as="geometry">
                        <mxPoint x="-4" y="12" as="offset"/>
                    </mxGeometry>
                </mxCell>
                <mxCell id="98" value="" style="group" parent="1" vertex="1" connectable="0">
                    <mxGeometry x="235" y="745" width="560" height="330" as="geometry"/>
                </mxCell>
                <mxCell id="37" value="&amp;lt;&amp;lt;device&amp;gt;&amp;gt;&lt;br&gt;Arduino" style="verticalAlign=top;align=center;spacingTop=8;spacingLeft=2;spacingRight=12;shape=cube;size=10;direction=south;fontStyle=0;html=1;" parent="98" vertex="1">
                    <mxGeometry width="560" height="330" as="geometry"/>
                </mxCell>
                <mxCell id="56" value="&lt;div style=&quot;&quot;&gt;&lt;span style=&quot;background-color: initial;&quot;&gt;&amp;lt;&amp;lt;deployment spec&amp;gt;&amp;gt;&lt;/span&gt;&lt;/div&gt;&lt;div style=&quot;&quot;&gt;deployReadScanners&lt;br&gt;&lt;/div&gt;" style="html=1;align=center;verticalAlign=middle;dashed=0;" parent="98" vertex="1">
                    <mxGeometry x="37.07999999999993" y="250" width="162.15" height="70" as="geometry"/>
                </mxCell>
                <mxCell id="97" value="" style="group" parent="98" vertex="1" connectable="0">
                    <mxGeometry x="12.5" y="60" width="525" height="150" as="geometry"/>
                </mxCell>
                <mxCell id="50" value="&amp;lt;&amp;lt;executionEnviroment&amp;gt;&amp;gt;&lt;br&gt;RaspberryPiEnviroment" style="verticalAlign=top;align=center;spacingTop=8;spacingLeft=2;spacingRight=12;shape=cube;size=10;direction=south;fontStyle=0;html=1;" parent="97" vertex="1">
                    <mxGeometry width="525" height="150" as="geometry"/>
                </mxCell>
                <mxCell id="53" value="&lt;div style=&quot;&quot;&gt;&lt;span style=&quot;background-color: initial;&quot;&gt;&amp;lt;&amp;lt;artifact&amp;gt;&amp;gt;&lt;/span&gt;&lt;/div&gt;&lt;div style=&quot;&quot;&gt;&lt;span style=&quot;background-color: initial;&quot;&gt;ReadScanners.c&lt;/span&gt;&lt;/div&gt;" style="html=1;align=center;verticalAlign=middle;dashed=0;" parent="97" vertex="1">
                    <mxGeometry x="19.999787234042557" y="62" width="171.31404255319146" height="63.5" as="geometry"/>
                </mxCell>
                <mxCell id="54" value="&lt;p style=&quot;margin: 6px 0px 0px;&quot;&gt;&amp;lt;&amp;lt;component&amp;gt;&amp;gt;&lt;/p&gt;&lt;p style=&quot;margin: 6px 0px 0px;&quot;&gt;&lt;br&gt;ScannerLesen&lt;/p&gt;" style="align=center;overflow=fill;html=1;dropTarget=0;verticalAlign=middle;" parent="97" vertex="1">
                    <mxGeometry x="310" y="51.56" width="188.63" height="84.38" as="geometry"/>
                </mxCell>
                <mxCell id="55" value="" style="shape=component;jettyWidth=8;jettyHeight=4;" parent="54" vertex="1">
                    <mxGeometry x="1" width="20" height="20" relative="1" as="geometry">
                        <mxPoint x="-24" y="4" as="offset"/>
                    </mxGeometry>
                </mxCell>
                <mxCell id="51" style="edgeStyle=none;html=1;endArrow=open;endFill=0;dashed=1;" parent="97" source="53" target="54" edge="1">
                    <mxGeometry relative="1" as="geometry"/>
                </mxCell>
                <mxCell id="52" value="&amp;lt;&amp;lt;manifest&amp;gt;&amp;gt;" style="edgeLabel;html=1;align=center;verticalAlign=middle;resizable=0;points=[];" parent="51" vertex="1" connectable="0">
                    <mxGeometry x="0.0295" y="1" relative="1" as="geometry">
                        <mxPoint as="offset"/>
                    </mxGeometry>
                </mxCell>
                <mxCell id="57" style="edgeStyle=none;html=1;dashed=1;endArrow=open;endFill=0;" parent="98" source="56" target="53" edge="1">
                    <mxGeometry relative="1" as="geometry"/>
                </mxCell>
                <mxCell id="96" value="&amp;lt;&amp;lt;deploy&amp;gt;&amp;gt;" style="edgeLabel;html=1;align=center;verticalAlign=middle;resizable=0;points=[];" parent="57" vertex="1" connectable="0">
                    <mxGeometry x="-0.2992" relative="1" as="geometry">
                        <mxPoint as="offset"/>
                    </mxGeometry>
                </mxCell>
                <mxCell id="100" value="&amp;lt;&amp;lt;deploy&amp;gt;" style="edgeStyle=orthogonalEdgeStyle;html=1;endArrow=open;endFill=0;dashed=1;" parent="1" source="99" target="2" edge="1">
                    <mxGeometry relative="1" as="geometry">
                        <Array as="points">
                            <mxPoint x="681" y="470"/>
                            <mxPoint x="681" y="470"/>
                        </Array>
                    </mxGeometry>
                </mxCell>
                <mxCell id="99" value="&lt;div style=&quot;&quot;&gt;&lt;span style=&quot;background-color: initial;&quot;&gt;&amp;lt;&amp;lt;deployment spec&amp;gt;&amp;gt;&lt;/span&gt;&lt;/div&gt;&lt;div style=&quot;&quot;&gt;deployRaspberryPi&lt;/div&gt;" style="html=1;align=center;verticalAlign=middle;dashed=0;" parent="1" vertex="1">
                    <mxGeometry x="600" y="515" width="162.15" height="70" as="geometry"/>
                </mxCell>
                <mxCell id="104" style="edgeStyle=orthogonalEdgeStyle;html=1;dashed=1;endArrow=open;endFill=0;" parent="1" source="101" target="37" edge="1">
                    <mxGeometry relative="1" as="geometry">
                        <Array as="points">
                            <mxPoint x="332" y="1000"/>
                            <mxPoint x="332" y="1000"/>
                        </Array>
                    </mxGeometry>
                </mxCell>
                <mxCell id="107" value="&amp;lt;&amp;lt;deploy&amp;gt;&amp;gt;" style="edgeLabel;html=1;align=center;verticalAlign=middle;resizable=0;points=[];" parent="104" vertex="1" connectable="0">
                    <mxGeometry x="0.0075" y="2" relative="1" as="geometry">
                        <mxPoint as="offset"/>
                    </mxGeometry>
                </mxCell>
                <mxCell id="105" style="edgeStyle=orthogonalEdgeStyle;html=1;dashed=1;endArrow=open;endFill=0;" parent="1" source="101" target="19" edge="1">
                    <mxGeometry relative="1" as="geometry"/>
                </mxCell>
                <mxCell id="106" value="&amp;lt;&amp;lt;deploy&amp;gt;&amp;gt;" style="edgeLabel;html=1;align=center;verticalAlign=middle;resizable=0;points=[];" parent="105" vertex="1" connectable="0">
                    <mxGeometry x="-0.0158" relative="1" as="geometry">
                        <mxPoint as="offset"/>
                    </mxGeometry>
                </mxCell>
                <mxCell id="101" value="&lt;div style=&quot;&quot;&gt;&lt;span style=&quot;background-color: initial;&quot;&gt;&amp;lt;&amp;lt;deployment spec&amp;gt;&amp;gt;&lt;/span&gt;&lt;/div&gt;&lt;div style=&quot;&quot;&gt;deployRFIDScanners&lt;/div&gt;" style="html=1;align=center;verticalAlign=middle;dashed=0;" parent="1" vertex="1">
                    <mxGeometry x="251" y="1151" width="162.15" height="70" as="geometry"/>
                </mxCell>
                <mxCell id="76" style="edgeStyle=none;html=1;endArrow=none;endFill=0;" parent="1" source="19" target="75" edge="1">
                    <mxGeometry relative="1" as="geometry"/>
                </mxCell>
                <mxCell id="77" value="&amp;lt;&amp;lt;protocol&amp;gt;&amp;gt;&lt;br&gt;RFID" style="edgeLabel;html=1;align=center;verticalAlign=middle;resizable=0;points=[];" parent="76" vertex="1" connectable="0">
                    <mxGeometry x="-0.0715" y="-2" relative="1" as="geometry">
                        <mxPoint x="29" y="-2" as="offset"/>
                    </mxGeometry>
                </mxCell>
                <mxCell id="108" value="" style="group" parent="1" vertex="1" connectable="0">
                    <mxGeometry x="443" y="-20" width="144" height="70" as="geometry"/>
                </mxCell>
                <mxCell id="109" value="&amp;lt;&amp;lt;device&amp;gt;&amp;gt;&lt;br&gt;Display" style="verticalAlign=top;align=center;spacingTop=8;spacingLeft=2;spacingRight=12;shape=cube;size=10;direction=south;fontStyle=0;html=1;" parent="108" vertex="1">
                    <mxGeometry width="144" height="70" as="geometry"/>
                </mxCell>
                <mxCell id="110" style="edgeStyle=orthogonalEdgeStyle;html=1;endArrow=none;endFill=0;" parent="1" source="2" target="109" edge="1">
                    <mxGeometry relative="1" as="geometry"/>
                </mxCell>
                <mxCell id="111" value="&amp;lt;&amp;lt;protocol&amp;gt;&amp;gt;&lt;br&gt;HDMI" style="edgeLabel;html=1;align=center;verticalAlign=middle;resizable=0;points=[];" parent="110" vertex="1" connectable="0">
                    <mxGeometry x="0.2707" relative="1" as="geometry">
                        <mxPoint as="offset"/>
                    </mxGeometry>
                </mxCell>
                <mxCell id="113" style="edgeStyle=orthogonalEdgeStyle;html=1;endArrow=open;endFill=0;dashed=1;" parent="1" source="112" target="62" edge="1">
                    <mxGeometry relative="1" as="geometry">
                        <Array as="points">
                            <mxPoint x="850" y="15"/>
                            <mxPoint x="850" y="15"/>
                        </Array>
                    </mxGeometry>
                </mxCell>
                <mxCell id="114" value="&amp;lt;&amp;lt;deploy&amp;gt;&amp;gt;" style="edgeLabel;html=1;align=center;verticalAlign=middle;resizable=0;points=[];" parent="113" vertex="1" connectable="0">
                    <mxGeometry x="0.2433" y="3" relative="1" as="geometry">
                        <mxPoint x="19" y="-3" as="offset"/>
                    </mxGeometry>
                </mxCell>
                <mxCell id="112" value="&lt;div style=&quot;&quot;&gt;&lt;span style=&quot;background-color: initial;&quot;&gt;&amp;lt;&amp;lt;deployment spec&amp;gt;&amp;gt;&lt;/span&gt;&lt;/div&gt;&lt;div style=&quot;&quot;&gt;deploySpielkasten&lt;/div&gt;" style="html=1;align=center;verticalAlign=middle;dashed=0;" parent="1" vertex="1">
                    <mxGeometry x="930.92" y="-20" width="162.15" height="70" as="geometry"/>
                </mxCell>
                <mxCell id="116" style="edgeStyle=orthogonalEdgeStyle;html=1;dashed=1;endArrow=open;endFill=0;" parent="1" source="115" target="75" edge="1">
                    <mxGeometry relative="1" as="geometry"/>
                </mxCell>
                <mxCell id="117" value="&amp;lt;&amp;lt;deploy&amp;gt;&amp;gt;" style="edgeLabel;html=1;align=center;verticalAlign=middle;resizable=0;points=[];" parent="116" vertex="1" connectable="0">
                    <mxGeometry x="-0.0461" y="1" relative="1" as="geometry">
                        <mxPoint as="offset"/>
                    </mxGeometry>
                </mxCell>
                <mxCell id="115" value="&lt;div style=&quot;&quot;&gt;&lt;span style=&quot;background-color: initial;&quot;&gt;&amp;lt;&amp;lt;deployment spec&amp;gt;&amp;gt;&lt;/span&gt;&lt;/div&gt;&lt;div style=&quot;&quot;&gt;deployFiguren&lt;/div&gt;" style="html=1;align=center;verticalAlign=middle;dashed=0;" parent="1" vertex="1">
                    <mxGeometry x="930.93" y="1004" width="162.15" height="70" as="geometry"/>
                </mxCell>
                <mxCell id="119" value="" style="group" vertex="1" connectable="0" parent="1">
                    <mxGeometry x="234.99999999999994" y="540" width="144" height="70" as="geometry"/>
                </mxCell>
                <mxCell id="120" value="&amp;lt;&amp;lt;device&amp;gt;&amp;gt;&lt;br&gt;Buttons 60mm" style="verticalAlign=top;align=center;spacingTop=8;spacingLeft=2;spacingRight=12;shape=cube;size=10;direction=south;fontStyle=0;html=1;" vertex="1" parent="119">
                    <mxGeometry width="144" height="70" as="geometry"/>
                </mxCell>
                <mxCell id="121" style="edgeStyle=none;html=1;entryX=1.005;entryY=0.872;entryDx=0;entryDy=0;entryPerimeter=0;endArrow=none;endFill=0;" edge="1" parent="1" source="120" target="2">
                    <mxGeometry relative="1" as="geometry"/>
                </mxCell>
                <mxCell id="122" value="&amp;lt;&amp;lt;protocol&amp;gt;&amp;gt;&lt;br&gt;GPIO" style="edgeLabel;html=1;align=center;verticalAlign=middle;resizable=0;points=[];" vertex="1" connectable="0" parent="121">
                    <mxGeometry x="0.0322" y="-2" relative="1" as="geometry">
                        <mxPoint as="offset"/>
                    </mxGeometry>
                </mxCell>
                <mxCell id="123" value="&lt;div style=&quot;&quot;&gt;&lt;span style=&quot;background-color: initial;&quot;&gt;&amp;lt;&amp;lt;deployment spec&amp;gt;&amp;gt;&lt;/span&gt;&lt;/div&gt;&lt;div style=&quot;&quot;&gt;deployButtons&lt;/div&gt;" style="html=1;align=center;verticalAlign=middle;dashed=0;" vertex="1" parent="1">
                    <mxGeometry x="235" y="660" width="162.15" height="70" as="geometry"/>
                </mxCell>
                <mxCell id="124" value="&amp;lt;&amp;lt;deploy&amp;gt;" style="edgeStyle=orthogonalEdgeStyle;html=1;endArrow=open;endFill=0;dashed=1;" edge="1" parent="1">
                    <mxGeometry relative="1" as="geometry">
                        <Array as="points">
                            <mxPoint x="311" y="620"/>
                            <mxPoint x="311" y="620"/>
                        </Array>
                        <mxPoint x="311" y="660" as="sourcePoint"/>
                        <mxPoint x="311.14285714285734" y="610" as="targetPoint"/>
                    </mxGeometry>
                </mxCell>
            </root>
        </mxGraphModel>
    </diagram>
</mxfile>